<?xml version="1.0" encoding="utf-8"?>
<!-- Generator: Adobe Illustrator 22.0.1, SVG Export Plug-In . SVG Version: 6.00 Build 0)  -->
<svg version="1.1" id="Слой_1" xmlns="http://www.w3.org/2000/svg" xmlns:xlink="http://www.w3.org/1999/xlink" x="0px" y="0px"
	 viewBox="0 0 80 50" style="enable-background:new 0 0 80 50;" xml:space="preserve">
<style type="text/css">
	.st0{fill:#FFF902;}
	.st1{fill:#F10006;}
	.st2{font-family:'Mudshovel';}
	.st3{font-size:21.186px;}
	.st4{fill:none;}
</style>
<path class="st0" d="M79.7,34c-3.1,0.6-3.3,1.2,0.1,2.6c-4.2-0.4-4.7,0.2-1.2,3.7c-1.7-0.8-2.9-1.3-3.7-1.4s-1.3,0.3-1.3,1.2
	c-0.2,0.8,0,2.2,0.4,4.1c-1.1-1.6-2-2.7-2.2-2.7c-1.4-1-2-0.9-1.5,1c-1.8-0.9-2.5,0.1-3,2.3c-0.5-2.5-0.9-3.3-0.9-0.2
	c-1.4-3.7-2.2-3.4-3.4,1.5c-0.4-4.6-1.2-4.5-3.2,1c0.4-5.3-0.5-5.1-3.5,0.4c1-5.2-0.2-5.1-4.3,0c1.8-4.8,0.6-4.7-3.6,0
	c1.7-4.5,0.4-4.4-3.3-0.2c1.2-4.1-0.1-4-3.6-0.1c0.8-3.8-0.6-3.8-3.7-0.1c-0.5-3.7-2.7-3.8-6.7,0c-0.4-4-2.5-4.1-7-0.3
	c0.5-4.2-1.5-4.4-6-1.2c0.9-3.7-0.9-4-5-0.8c0.9-3.9-0.6-4.2-5-1.3c1.6-3.8,0.4-4.2-4.1-1.7c2.4-3.5,1.5-4-3.1-2.3
	c3.1-2.7,2.5-3.3-2-2.5c3.7-1.9,3.5-2.4-1.2-2.7C2.4,33.4,2.6,32.9-3,31c6.3,0.8,6.9,0.3,1.2-5.4c7.2,4.6,8.1,4.1,7.4-5.3
	c2.9,8.5,4.1,8.1,9,0.1c-2.2,7.2-0.7,6.8,5.7,0.6c-3.2,5.5-1.4,5.2,3.4-0.2c-1.1,4.8,0.8,4.6,5.3-0.3c-0.5,4.5,1.6,4.3,6,0
	c0,4.1,2.2,4.1,6.2,0c-0.6,4.1,0.5,4.1,3.5-0.1c-0.7,4.2,0.4,4.2,3.6,0c-1,4.4,0,4.4,2.9,0.1c-1.6,4.2-1.4,4-0.5-0.2
	c-0.5,4,0.5,4.2,3.6,0.6c-1.4,3.8-0.5,3.9,2.7,1.1c-1.4,2.6-0.5,2.3,1.9,0.6c-0.2,0.8,1.1,0.2,2.6-0.7c1.4-0.8,3.2-1.9,5.3-3.2
	c-1.3,1.5-2.4,2.7-3,3.6c-0.7,1-0.9,1.7-0.8,2.2c0,0.6,0.5,0.9,1.3,1.1c0.9,0.2,2.1,0.2,3.8,0.1c1.7-0.1,3.8-0.2,6.3-0.5
	c-2.4,0.5-4.1,0.8-5.1,1.1c-1,0.3-1.4,0.5-1.2,0.6c0.2,0.2,1,0.3,2.3,0.4c1.4,0,3.3,0.1,5.7,0c-7,0.9-5.8,1.4,0.9,1.2
	c-4.6,1.1-3.6,1.6,1,1.4c-3.1,1.3-2.6,1.8,1,1.9C76.4,32.9,76.6,33.4,79.7,34z"/>
<text transform="matrix(1 0 0 1 3.0085 30.3246)" class="st1 st2 st3">science</text>
<rect x="20.5" y="7.6" class="st4" width="5.1" height="0.1"/>
</svg>
